<svg width="539" height="211" viewBox="0 0 539 211" fill="none" xmlns="http://www.w3.org/2000/svg">
<path d="M68.8224 154L41.3082 59.4545H66.5604L80.8253 121.408H81.6101L97.9062 59.4545H118.496L134.792 121.546H135.577L149.888 59.4545H175.094L147.626 154H125.605L108.57 96.6633H107.832L90.7969 154H68.8224ZM184.534 154V83.0909H207.109V154H184.534ZM195.845 74.8274C192.675 74.8274 189.951 73.781 187.674 71.6882C185.396 69.5646 184.257 67.0102 184.257 64.0249C184.257 61.0703 185.396 58.5466 187.674 56.4538C189.951 54.3303 192.675 53.2685 195.845 53.2685C199.046 53.2685 201.769 54.3303 204.016 56.4538C206.293 58.5466 207.432 61.0703 207.432 64.0249C207.432 67.0102 206.293 69.5646 204.016 71.6882C201.769 73.781 199.046 74.8274 195.845 74.8274ZM261.503 83.0909V99.7102H216.769V83.0909H261.503ZM226.14 66.1023H248.715V131.702C248.715 133.087 248.93 134.211 249.361 135.072C249.823 135.903 250.485 136.504 251.346 136.873C252.208 137.211 253.239 137.381 254.439 137.381C255.301 137.381 256.209 137.304 257.163 137.15C258.148 136.965 258.887 136.811 259.379 136.688L262.795 152.984C261.718 153.292 260.195 153.677 258.225 154.138C256.286 154.6 253.962 154.893 251.254 155.016C245.961 155.262 241.421 154.646 237.635 153.169C233.881 151.661 231.003 149.322 229.003 146.152C227.033 142.982 226.079 138.996 226.14 134.195V66.1023ZM274.544 154V59.4545H339.083V78.0128H297.396V97.402H334.974V116.006H297.396V154H274.544ZM373.164 59.4545V154H350.589V59.4545H373.164ZM387.532 154V83.0909H410.107V154H387.532ZM398.843 74.8274C395.673 74.8274 392.949 73.781 390.672 71.6882C388.394 69.5646 387.256 67.0102 387.256 64.0249C387.256 61.0703 388.394 58.5466 390.672 56.4538C392.949 54.3303 395.673 53.2685 398.843 53.2685C402.044 53.2685 404.767 54.3303 407.014 56.4538C409.291 58.5466 410.43 61.0703 410.43 64.0249C410.43 67.0102 409.291 69.5646 407.014 71.6882C404.767 73.781 402.044 74.8274 398.843 74.8274ZM443.68 83.0909L455.36 106.45L467.455 83.0909H490.214L470.41 118.545L490.953 154H468.379L455.36 130.456L442.665 154H419.767L440.357 118.545L420.783 83.0909H443.68Z" fill="#FF0000"/>
</svg>
